# xmcd
#
# Track frame offsets: 
#        150
#        11742
#        24901
#        35553
#        48085
#        59207
#        72680
#        82705
#        95551
#        108083
#        121399
#        132521
#        144270
#        156646
#        167454
#        180143
#        191892
#        205208
#        216643
#        230743
#        243746
#        255651
#        266459
#        278521
#        293248
#        305780
#
# Disc length: 4263 seconds
#
# Revision: 0
# Processed by: cddbd v1.5.1PL0 Copyright (c) Steve Scherf et al.
# Submitted via: ExactAudioCopy v0.95a5
#
DISCID=8710a51a
DTITLE=The Orioles - 1947-1955 (Disk 2)
DYEAR=2004
DGENRE=R&B
TTITLE0=My Loved One
TTITLE1=Waiting
TTITLE2=Barfly
TTITLE3=A Scandal
TTITLE4=It Ain't Gonna Be Like That
TTITLE5=Gettin' Tired, Tired, Tired
TTITLE6=Pretty Pretty Rain
TTITLE7=Why Did You Go
TTITLE8=No Other Love
TTITLE9=The Night Has Come
TTITLE10=Don't Stop
TTITLE11=My Baby's Gonna Get It
TTITLE12=I Only Have Eyes For You
TTITLE13=Once In Awhile
TTITLE14=Don't Cry Baby
TTITLE15=See See Rider
TTITLE16=Hold Me Thrill Me Kiss Me
TTITLE17=Bad Little Girl
TTITLE18=Crying In The Chapel
TTITLE19=In The Mission Of St. Augustine
TTITLE20=The Robe Of Calvery
TTITLE21=Don't Go To Strangers
TTITLE22=Secret Love
TTITLE23=In The Chapel In The Moonlight
TTITLE24=Fair Exchange
TTITLE25=I Need You Baby
EXTD=
EXTT0=
EXTT1=
EXTT2=
EXTT3=
EXTT4=
EXTT5=
EXTT6=
EXTT7=
EXTT8=
EXTT9=
EXTT10=
EXTT11=
EXTT12=
EXTT13=
EXTT14=
EXTT15=
EXTT16=
EXTT17=
EXTT18=
EXTT19=
EXTT20=
EXTT21=
EXTT22=
EXTT23=
EXTT24=
EXTT25=
PLAYORDER=
